<svg width="456" height="68" viewBox="0 0 456 68" fill="none" xmlns="http://www.w3.org/2000/svg">
<path d="M23.1445 31.3152C-4.54718 68.9431 -3.79875 67.4258 7.42759 67.4258C14.9118 67.4258 19.4024 63.481 32.874 44.667C41.4808 32.2255 49.7135 21.9082 50.8361 21.9082C51.9587 21.9082 56.0751 26.1565 59.443 31.0117L65.8046 40.1152H55.3266C42.2292 40.1152 32.1255 48.005 41.4808 51.0395C44.4745 51.9498 49.3393 52.2533 51.9587 51.3429C54.5782 50.4326 53.0814 49.5222 48.2166 49.5222C34.3708 49.2188 42.6035 43.1498 57.1977 43.1498C64.3077 43.1498 69.9209 42.5429 69.9209 41.6325C69.9209 40.7222 65.4303 34.3497 60.1914 27.3703L50.4619 14.9288L32.874 39.5083C22.0218 55.2878 13.415 64.3913 9.29864 64.3913C4.05969 64.3913 7.8018 57.4119 25.3897 33.7428C38.1129 17.053 50.0877 4.00462 52.333 4.61152C54.5782 5.21842 63.1851 14.3219 71.0435 25.2462C79.2762 35.8669 89.0057 49.2188 93.122 54.3774C100.232 64.0879 100.232 64.3913 93.122 64.3913C89.3799 64.3913 84.1409 61.0533 81.8956 56.805C79.6504 52.5567 75.5341 49.2188 72.9146 49.2188C69.5467 49.2188 69.1725 50.1291 72.1662 51.6464C74.4114 52.8602 78.1535 56.805 80.773 60.4464C84.5151 66.5155 103.6 70.7638 103.6 65.6051C103.6 59.8395 56.0751 0.666665 51.2103 0.666665C48.2166 0.666665 35.8677 14.0185 23.1445 31.3152Z" fill="#FF8800"/>
<path d="M111.084 34.0462V67.4258H141.021C168.339 67.4258 171.706 66.8189 182.184 58.9292C191.165 52.5567 194.159 47.7015 195.282 37.0807L196.779 23.4255L193.411 37.0807C187.798 58.3223 176.571 64.3913 142.518 64.3913H114.826V34.0462V4.00462L142.144 2.79082L169.087 1.88047L140.273 1.27356L111.084 0.666664V34.0462Z" fill="#FF8800"/>
<path d="M236.819 7.34257C226.715 20.391 202.018 53.7705 197.527 60.4464C193.411 66.8189 193.785 67.4258 202.392 67.4258C208.379 67.4258 213.244 64.9982 215.863 60.4464C219.605 54.3774 219.605 54.3774 214.741 58.9292C209.876 64.0878 200.895 66.5155 200.895 62.5706C200.895 58.0188 243.555 3.70117 247.297 3.70117C253.284 4.00462 295.196 62.5706 289.957 64.0878C287.712 64.6948 282.099 61.6602 277.608 57.1085C271.621 50.736 266.756 49.2188 254.033 49.2188C245.426 49.2188 238.316 47.7015 238.316 46.1843C238.316 44.3636 244.303 43.1498 251.413 43.1498C266.008 43.1498 267.13 41.0256 258.523 32.2255C252.91 26.7634 252.91 26.7634 256.652 33.1359C260.395 39.2049 259.646 39.8118 248.794 40.7221C240.561 41.329 236.071 43.4532 235.322 46.7912C234.2 51.3429 236.819 52.2533 252.536 52.2533C268.253 52.2533 271.621 53.4671 275.737 59.8395C280.228 66.8189 298.19 71.0672 298.19 65.3017C298.19 59.8395 251.788 0.666659 247.297 0.666659C244.678 0.666659 239.813 3.70117 236.819 7.34257Z" fill="#FF8800"/>
<path d="M338.605 5.52186C332.617 7.94947 328.127 10.984 328.127 12.1978C328.127 16.7495 336.734 21.3013 341.598 19.784C345.715 18.5702 346.837 23.122 346.837 43.1497C346.837 67.1223 347.211 67.7293 355.444 66.8189C363.303 65.9085 363.677 64.3913 364.799 35.8669C365.174 19.1771 364.425 4.61151 362.928 3.39771C361.432 1.88045 360.309 15.2323 361.057 32.529C362.18 59.8395 361.432 64.3913 356.567 64.3913C351.702 64.3913 350.579 59.8395 350.579 38.598C350.579 13.715 350.205 12.8047 343.469 15.8392C338.23 17.9633 335.237 17.9633 333.74 15.5357C330.746 11.8943 330.372 11.8943 344.966 5.82531C351.328 3.09426 354.696 0.970102 352.45 0.970102C350.579 0.970102 344.218 3.09426 338.605 5.52186Z" fill="#FF8800"/>
<path d="M374.529 5.21845C370.413 13.4116 377.149 15.8392 406.711 15.8392C434.029 15.8392 436.274 16.1427 437.771 22.5151C439.642 28.5841 439.642 28.5841 439.268 21.9082C438.519 14.6254 437.771 14.322 407.834 13.4116C383.51 12.8047 376.774 11.5909 376.774 8.25295C376.774 4.61154 383.136 3.70119 407.834 3.70119C433.654 3.70119 440.39 4.61154 445.255 9.1633C453.113 16.1427 453.488 23.122 446.003 28.8876C441.139 32.8325 441.139 33.7428 446.003 35.2601C453.488 37.3842 453.113 53.4671 445.629 59.5361C437.397 66.5155 376.774 66.5155 376.774 59.8396C376.774 56.1982 382.388 55.2878 406.337 55.2878C422.802 55.2878 437.022 54.3775 437.771 52.8602C438.893 51.6464 425.048 51.3429 407.46 52.2533C377.897 53.7706 374.903 54.3775 374.903 59.8396C374.903 65.3017 377.897 65.9086 407.46 66.8189C436.274 67.4258 441.139 66.8189 447.875 61.3568C455.733 54.9844 457.978 38.9015 451.617 35.5635C448.997 34.3497 448.997 31.9221 451.617 27.9772C457.23 19.4806 456.107 13.4116 447.875 6.7357C441.513 1.57704 435.526 0.666685 408.582 0.666685C383.884 0.666685 376.026 1.57704 374.529 5.21845Z" fill="#FF8800"/>
<path d="M122.311 34.0462V55.2878H146.26C167.216 55.2878 171.332 54.3774 176.197 48.6119C183.681 40.1152 183.681 27.9772 176.571 20.0875C171.706 14.9288 171.706 15.2323 175.449 24.0324C178.442 30.7083 178.816 36.4738 176.197 42.2394C172.829 50.1291 170.958 50.736 149.254 51.6464L126.053 52.5567V34.3497V16.1426L147.757 14.9288L169.087 14.0185L145.886 13.4116L122.311 12.8047V34.0462Z" fill="#FF8800"/>
<path d="M237.193 27.0669C224.844 42.8463 218.857 52.2533 221.102 52.2533C222.225 52.2533 227.464 45.2739 233.451 37.0807C239.064 28.5841 245.8 22.5151 248.42 23.122C251.039 24.0324 252.162 22.8186 250.665 20.0875C248.045 14.0185 246.923 14.6254 237.193 27.0669Z" fill="#FF8800"/>
<path d="M391.743 33.7428C391.743 38.9015 395.111 39.8118 415.692 40.7222C428.79 41.0256 438.893 40.7222 437.771 39.2049C437.022 37.9911 426.919 37.0808 415.692 37.0808C389.872 37.0808 389.123 31.6186 415.318 30.1014L434.777 29.191L413.447 28.5841C394.362 27.9772 391.743 28.5841 391.743 33.7428Z" fill="#FF8800"/>
</svg>
